<?xml version="1.0" encoding="utf-8"?>
<svg version="1.1" id="Layer_1" xmlns="http://www.w3.org/2000/svg" xmlns:xlink="http://www.w3.org/1999/xlink" x="0px" y="0px"
	 viewBox="0 0 1337.168 1654.725" enable-background="new 0 0 1337.168 1654.725" xml:space="preserve">
<path d="M1306.14,1392.275c-0.762,1.247-9.92,1.413-40.789,0.776c-42.507-0.873-115.647-1.413-355.433-2.646l-150.672-0.762
	l0.319,11.5c0.831,29.539-3.464,65.201-9.352,77.629c-2.369,5.002-5.584,11.804-7.135,15.13
	c-2.452,5.209-13.107,16.681-21.572,23.179c-7.565,5.819-16.335,11.693-17.471,11.693c-1.649,0-1.649,7.98,0.014,24.218
	c0.72,7.038,1.87,20.685,2.577,30.328c0.693,9.657,1.871,22.223,2.605,27.932c0.734,5.722,1.469,11.555,1.635,12.996
	c0.333,2.674-73.195,4.295-93.853,2.064c-3.935-0.429-7.052-1.358-6.955-2.064c0.111-0.72,0.568-4.808,1.011-9.103
	c0.443-4.281,1.385-10.419,2.078-13.633c0.693-3.214,2.48-14.908,3.977-25.978c1.482-11.07,3.242-23.636,3.893-27.932
	c3.159-20.685,3.533-18.122-3.2-21.489c-3.298-1.649-5.999-3.477-5.999-4.06c0-0.596-0.748-1.081-1.676-1.081
	c-6.706,0-27.668-31.409-33.557-50.279c-2.508-8.077-4.06-74.027-1.857-79.652c0.707-1.787-22.694-2.037-226.874-2.355
	c-125.22-0.208-247.836-0.471-272.484-0.61l-44.807-0.235l-0.416-4.254c-0.249-2.66,1.053-7.537,3.491-12.996
	c2.134-4.794,4.267-11.07,4.738-13.924c3.685-22.223,23.456-60.684,47.425-92.301c19.84-26.144,33.958-41.163,56.459-60.061
	c7.87-6.595,15.905-13.37,17.859-15.06c2.272-1.953,3.575-4.378,3.575-6.609c0-2.605,2.05-5.542,7.8-11.167
	c4.655-4.558,7.786-8.729,7.786-10.363c0-1.607,2.979-5.694,7.163-9.837c3.935-3.907,8.618-9.851,10.405-13.204
	c1.787-3.353,3.769-6.983,4.42-8.05c0.651-1.081,2.466-5.168,4.046-9.089c1.579-3.935,4.891-11.513,7.343-16.848
	c6.539-14.201,13.328-30.772,16.252-39.667c1.413-4.281,3.367-9.546,4.337-11.68c4.447-9.795,18.746-71.657,22.819-98.716
	c8.022-53.411,12.456-95.141,14.063-132.494c1.718-39.777,1.482-129.654-0.43-168.198c-3.394-68.36-2.411-118.279,3.159-160.287
	c3.616-27.197,14.922-66.005,26.421-90.611c2.438-5.251,4.877-11.001,5.39-12.788c6.387-22.126,45.444-74.636,71.796-96.527
	c13.107-10.876,46.372-33.363,49.351-33.363c0.734,0,4.447-2.064,8.271-4.6c7.967-5.306,35.912-19.134,42.645-21.115
	c2.494-0.734,8.202-2.799,12.691-4.6c4.475-1.801,11.334-3.99,15.254-4.877c7.828-1.746,8.299-2.314,4.669-5.583
	c-2.189-1.995-2.383-3.63-1.787-15.476c0.914-17.942-3.117-35.288-14.548-62.596c-5.182-12.386-7.842-26.227-7.842-40.913V85.054
	l5.556-11.347c5.043-10.336,19.535-28.278,22.819-28.278c0.554,0,3.256-1.801,6.013-4.018c7.482-6.013,24.579-11.236,42.562-13.024
	c20.949-2.064,216.247-0.734,225.696,1.552c28.887,6.969,43.366,16.196,55.738,35.538c13.758,21.489,11.735,42.867-7.662,81.065
	c-14.423,28.402-21.586,78.142-11.264,78.142c0.998,0,8.022,2.563,15.628,5.694c7.592,3.131,17.319,7.038,21.6,8.673
	c7.69,2.923,26.809,11.5,33.127,14.839c1.773,0.942,5.971,3.159,9.297,4.919c6.983,3.699,14.534,8.826,15.157,10.322
	c0.235,0.554,1.205,1.011,2.148,1.011c0.942,0,4.752,2.051,8.465,4.544c3.713,2.508,6.927,4.544,7.135,4.544
	c2.051,0,36.646,26.338,40.927,31.16c1.067,1.205,6.332,5.902,11.68,10.419c5.362,4.53,10.142,9.158,10.627,10.28
	c0.831,1.953,3.173,4.794,11.32,13.786c14.963,16.473,33.556,48.478,40.359,69.441c1.496,4.655,3.27,9.615,3.921,11.042
	c3.021,6.581,7.676,28.777,11.015,52.607c1.053,7.509,2.591,18.316,3.408,24.038c1.358,9.518,2.494,83.725,2.84,166.743
	c2.632,0.582,3.02,1.095,0,1.316c0.152,37.256,0.152,76.216-0.069,111.85c-0.513,84.085,1.15,137.205,5.112,163.003
	c1.413,9.297,3.103,20.394,3.727,24.689c0.637,4.281,2.037,12.469,3.103,18.178c1.081,5.722,1.981,12.248,2.009,14.506
	c0.277,24.482,45.61,144.7,57.137,151.517c3.547,2.092,10.46,12.469,10.46,15.698c0,0.818,1.773,3.644,3.949,6.276
	c2.743,3.325,4.184,6.734,4.697,11.125c0.734,6.124,1.219,6.747,15.102,19.203c30.218,27.114,60.172,58.952,74.886,79.596
	c16.252,22.805,40.913,65.09,40.622,69.662c-0.097,1.413,0.679,3.88,1.718,5.473c1.053,1.579,1.898,3.713,1.898,4.724
	c0,0.998,0.914,2.591,2.037,3.519C1304.92,1373.447,1308.924,1387.772,1306.14,1392.275z"/>
</svg>
